<svg version="1.2" xmlns="http://www.w3.org/2000/svg" viewBox="0 0 488 188" width="488" height="188">
	<title>logo</title>
	<style>
		.s0 { fill: #14b8a6 } 
		.s1 { fill: #000000 } 
	</style>
	<path id="Shape 1" class="s0" d="m0 50c0-27.6 22.4-50 50-50h87.7c27.6 0 50 22.4 50 50v87.7c0 27.6-22.4 50-50 50h-87.7c-27.6 0-50-22.4-50-50z"/>
	<path id="inetracker" fill-rule="evenodd" class="s1" d="m78.6 129h-12.1v-51.2h12.1zm-6-58.4q-2.9 0-5-1.9-2-1.9-2-4.6 0-2.8 2-4.7 2.1-1.9 5-1.9 2.8 0 4.9 1.9 2 1.9 2 4.6 0 2.8-2 4.7-2.1 1.9-4.9 1.9zm26.9 28.5v29.9h-12v-51.2h11.8v8.8h0.6q1.7-4.3 5.4-6.9 3.8-2.5 9.5-2.5 5.3 0 9.3 2.2 3.9 2.3 6.1 6.6 2.2 4.3 2.2 10.5v32.5h-12.1v-30.7q0-5.1-2.6-8-2.7-2.9-7.4-2.9-3.1 0-5.6 1.4-2.4 1.3-3.8 4-1.4 2.5-1.4 6.3zm64.4 30.9q-7.7 0-13.3-3.2-5.5-3.2-8.6-9.1-2.9-5.9-2.9-14 0-7.9 2.9-13.8 3-6 8.4-9.4 5.4-3.3 12.7-3.3 4.8 0 9 1.5 4.2 1.5 7.5 4.7 3.3 3.1 5.1 8 1.9 4.9 1.9 11.6v3.8h-35.6q0.2 4.1 1.6 7.1 1.7 3.3 4.6 5 3 1.7 6.9 1.7 2.6 0 4.7-0.7 2.1-0.7 3.6-2.2 1.6-1.5 2.4-3.7l11.3 1.3q-1.1 4.5-4.1 7.8-2.9 3.3-7.6 5.1-4.5 1.8-10.5 1.8zm-12.9-23.2q0-0.5 0-1v-5.6q0-0.8 0.1-1.5h-6.4v8.1zm23.9-8.1q0.1 1.1 0.1 2.3l5.6-2.3zm-1.2-5.2q-1.4-3.3-4-5.1-2.6-1.8-6.5-1.8-3.9 0-6.6 1.8-2.8 1.8-4.2 4.9-1.1 2.5-1.4 5.4h23.9q-0.3-2.9-1.2-5.2zm15.6-15.7h7.2v-12.2h12v12.2h10.1v9.4h-10.1v26.4q0 3 1.3 4.5 1.4 1.4 4.2 1.4 0.8 0 1.8-0.2 1-0.1 1.7-0.3l2.1 9.4q-1.9 0.6-3.9 1-2 0.2-3.9 0.2-7.2 0-11.3-3.7-4-3.8-4-10.4v-28.3h-7.2zm48 51.2h-12v-51.2h11.6v8.6h0.6q1.4-4.5 4.8-6.9 3.4-2.4 7.8-2.4 1 0 2.2 0.1 1.3 0.1 2.1 0.2v11.1q-0.7-0.3-2.4-0.5-1.6-0.2-3.2-0.2-3.3 0-5.9 1.5-2.6 1.4-4.1 3.8-1.5 2.5-1.5 5.8zm35.4 1.1q-4.9 0-8.7-1.8-3.9-1.8-6.2-5.2-2.2-3.4-2.2-8.5 0-4.3 1.6-7.1 1.6-2.8 4.3-4.5 2.8-1.7 6.3-2.6 3.5-0.9 7.2-1.3 4.5-0.5 7.3-0.8 2.8-0.4 4-1.2 1.3-0.9 1.3-2.6v-0.2q0-3.7-2.2-5.8-2.2-2.1-6.4-2.1-4.4 0-7 2-2.6 1.9-3.5 4.5l-11.2-1.6q1.3-4.7 4.4-7.8 3-3.2 7.4-4.7 4.5-1.6 9.8-1.6 3.7 0 7.4 0.9 3.6 0.8 6.7 2.8 3 2 4.9 5.4 1.8 3.4 1.8 8.5v34.2h-11.6v-7h-0.3q-1.1 2.1-3.2 4-1.9 1.8-4.9 2.9-2.9 1.2-7 1.2zm3.1-8.9q3.7 0 6.3-1.4 2.7-1.5 4.2-3.9 1.4-2.4 1.4-5.2v-6q-0.6 0.4-1.9 0.8-1.3 0.4-3 0.7-1.7 0.3-3.4 0.6-1.6 0.2-2.8 0.3-2.7 0.4-4.8 1.3-2.1 0.8-3.4 2.3-1.2 1.4-1.2 3.8 0 3.3 2.4 5 2.5 1.7 6.2 1.7zm55.1 8.8q-7.6 0-13.1-3.3-5.5-3.4-8.4-9.4-3-5.9-3-13.6 0-7.9 3-13.8 3-6 8.5-9.3 5.5-3.4 12.9-3.4 6.3 0 11.1 2.3 4.8 2.3 7.7 6.4 2.9 4.2 3.3 9.7h-11.6q-0.4-2.5-1.8-4.4-1.3-2-3.4-3.2-2.1-1.1-5.1-1.1-3.7 0-6.5 2-2.7 2-4.3 5.7-1.5 3.7-1.5 8.9 0 5.2 1.5 9 1.5 3.7 4.3 5.8 2.8 2 6.5 2 4 0 6.8-2.3 2.8-2.4 3.5-6.5h11.6q-0.4 5.5-3.2 9.6-2.8 4.2-7.6 6.6-4.8 2.3-11.2 2.3zm40.5-18.1v17.1h-12v-68.2h12v37.6h0.9l18.3-20.6h14.1l-19.8 22.1 21 29.1h-14.4l-15.7-21.9zm58.3 18.1q-7.7 0-13.3-3.2-5.5-3.2-8.6-9.1-2.9-5.9-2.9-13.9 0-8 2.9-13.9 3-6 8.4-9.4 5.4-3.3 12.7-3.3 4.8 0 9 1.5 4.2 1.5 7.5 4.7 3.3 3.1 5.2 8 1.8 4.9 1.8 11.6v3.8h-35.6q0.2 4.1 1.6 7.1 1.7 3.3 4.6 5 3 1.7 6.9 1.7 2.6 0 4.7-0.7 2.1-0.7 3.6-2.2 1.6-1.5 2.4-3.7l11.3 1.3q-1.1 4.5-4.1 7.8-2.9 3.3-7.5 5.1-4.6 1.8-10.6 1.8zm-12.9-23.2q0-0.4 0-0.9v-5.7q0-0.7 0.1-1.5h-6.4v8.1zm23.9-8.1q0.1 1.1 0.1 2.3l5.6-2.3zm-1.2-5.2q-1.4-3.3-4-5.1-2.6-1.8-6.5-1.8-3.9 0-6.6 1.8-2.8 1.8-4.2 5-1.1 2.4-1.3 5.3h23.8q-0.3-2.9-1.2-5.2zm31.5 35.5h-12.1v-51.2h11.7v8.6h0.6q1.3-4.4 4.8-6.8 3.4-2.4 7.8-2.4 1 0 2.2 0 1.3 0.1 2.1 0.3v11.1q-0.8-0.3-2.4-0.5-1.7-0.2-3.2-0.2-3.3 0-5.9 1.4-2.7 1.4-4.2 3.9-1.4 2.5-1.4 5.8z"/>
</svg>